<svg height="512" viewBox="0 0 60 60" width="512" xmlns="http://www.w3.org/2000/svg"><g id="Page-1" fill="none" fill-rule="evenodd"><g id="049---Contrast" fill="rgb(0,0,0)" fill-rule="nonzero"><path id="Shape" d="m30 0c-16.5685425 0-30 13.4314575-30 30s13.4314575 30 30 30 30-13.4314575 30-30c-.018737-16.5607751-13.4392249-29.98126296-30-30zm0 58c-15.463973 0-28-12.536027-28-28s12.536027-28 28-28 28 12.536027 28 28c-.0176345 15.4566626-12.5433374 27.9823655-28 28z"/><path id="Shape" d="m30 4c-2.4703708-.00170734-4.9283909.34847635-7.3 1.04-.5301934.15491587-.8344159.71030664-.6795 1.2405s.7103066.83441587 1.2405.6795c1.8684333-.5398218 3.7955776-.85043488 5.739-.925v47.94c-10.7706553-.4480984-19.92106036-8.0225514-22.37320515-18.5199222-2.4521448-10.4973708 2.39569116-21.3417581 11.85320515-26.5150778.327276-.16390658.538853-.4935215.5515935-.85932561.0127406-.36580412-.1753911-.70934049-.4904705-.89561967s-.7067556-.18553302-1.021123.00194528c-11.501464 6.2873658-16.52602451 20.1516981-11.72317286 32.3478966 4.80285166 12.1961985 17.93173936 18.9117198 30.63197656 15.6684781 12.7002373-3.2432417 21.0017175-15.4314058 19.3687961-28.4371049s-12.6897917-22.76333913-25.7975998-22.7662698zm23.438 31.148-18.29 18.29c-1.3644046.2993711-2.7523406.4790532-4.148.537v-.561l22.989-22.989c-.0264682 1.5887181-.2110452 3.1708542-.551 4.723zm-22.438-23.734 4.72-4.72c1.0746891.26439123 2.1295913.60355047 3.157 1.015l-7.877 7.877zm0-2.828v-2.561c.7926667.03266667 1.575.10366667 2.347.213zm0 9.828 9.824-9.824c.9076244.45862345 1.7850723.97467103 2.627 1.545l-12.451 12.451zm22.887 9.286-22.887 22.886v-4.172l22.273-22.273c.2944219 1.169089.4996782 2.35884.614 3.559zm-22.887 15.886v-4.172l20.352-20.352c.4844382.9410804.9060271 1.9132071 1.262 2.91zm0-7v-4.172l17.583-17.582c.6304586.772772 1.2122481 1.5840044 1.742 2.429zm16.249-23.249-16.249 16.249v-4.172l14.072-14.072c.7656204.6200417 1.4926415 1.286283 2.177 1.995zm-7.965 38.793 12.846-12.846c-2.4455689 5.7916001-7.0543999 10.4004311-12.846 12.846z"/></g></g></svg>