<svg id="Capa_1" enable-background="new 0 0 512 512" height="512" viewBox="0 0 512 512" width="512" xmlns="http://www.w3.org/2000/svg"><g><path d="m497 226c8.284 0 15-6.716 15-15v-60c0-8.284-6.716-15-15-15h-106.917l49.522-74.284c4.593-6.889 2.733-16.206-4.16-20.801l-49.924-33.282c-6.893-4.594-16.206-2.732-20.801 4.161l-82.803 124.206h-266.917c-8.284 0-15 6.716-15 15v60c0 8.284 6.716 15 15 15h206.917l-40 60h-166.917c-8.284 0-15 6.716-15 15v60c0 8.284 6.716 15 15 15h106.917l-49.522 74.284c-4.593 6.889-2.733 16.206 4.16 20.801l49.924 33.282c6.882 4.586 16.198 2.744 20.801-4.161l82.803-124.206h266.917c8.284 0 15-6.716 15-15v-60c0-8.284-6.716-15-15-15h-206.917l40-60zm-15-60v30h-131.917l20-30zm-452 30v-30h231.917l-20 30zm0 150v-30h131.917l-20 30zm100.639 125.085-24.962-16.641 275.684-413.529 24.962 16.641zm351.361-155.085v30h-231.917l20-30z"/></g></svg>