<svg id="Layer_5" enable-background="new 0 0 64 64" height="512" viewBox="0 0 64 64" width="512" xmlns="http://www.w3.org/2000/svg"><g><path d="m14 43c-3.86 0-7 3.14-7 7s3.14 7 7 7 7-3.14 7-7-3.14-7-7-7zm0 12c-2.757 0-5-2.243-5-5s2.243-5 5-5 5 2.243 5 5-2.243 5-5 5z"/><path d="m14 47c-1.654 0-3 1.346-3 3s1.346 3 3 3 3-1.346 3-3-1.346-3-3-3zm0 4c-.551 0-1-.449-1-1s.449-1 1-1 1 .449 1 1-.449 1-1 1z"/><path d="m58.986 20.439 2.052-2.046-.002-.418c-.024-3.846-3.171-6.975-7.036-6.975h-.414l-2.018 2.018c-2.572-1.668-5.465-2.883-8.568-3.515v-2.503c1.654 0 3-1.346 3-3s-1.346-3-3-3h-10c-1.654 0-3 1.346-3 3s1.346 3 3 3v2.503c-3.095.631-5.98 1.84-8.546 3.502l-1.712-1.712-.312-.293h-.414c-3.846 0-6.993 3.129-7.016 6.975l-.002.418 2.03 2.025c-2.544 3.914-4.028 8.576-4.028 13.582 0 .998.084 2.011.208 3.023-1.206.116-2.242.922-2.627 2.093-.099.302-.316.538-.596.646-.131.051-.261.104-.391.161-.273.118-.591.105-.873-.038-1.188-.601-2.619-.372-3.561.57l-.704.705c-.942.941-1.171 2.373-.57 3.561.143.282.156.6.038.874-.056.129-.11.26-.161.39-.108.28-.345.497-.648.596-1.265.416-2.115 1.59-2.115 2.921v.996c0 1.331.85 2.505 2.116 2.921.302.099.538.316.646.594.051.132.104.263.161.393.118.273.104.591-.038.873-.601 1.188-.372 2.62.57 3.561l.704.705c.942.942 2.373 1.17 3.561.57.281-.143.599-.157.874-.038.129.056.26.11.39.161.28.108.497.345.596.648.417 1.264 1.591 2.114 2.922 2.114h.996c1.331 0 2.505-.85 2.921-2.116.099-.302.316-.538.594-.646.132-.051.263-.104.393-.161.272-.119.591-.105.873.038 1.188.6 2.62.372 3.561-.57l.705-.704c.942-.941 1.171-2.373.57-3.561-.093-.184-.11-.381-.092-.573 4.136 2.801 8.936 4.293 13.977 4.293 13.785 0 25-11.215 25-25 0-4.996-1.479-9.651-4.014-13.561zm-4.586-7.425c2.44.185 4.407 2.133 4.617 4.57l-1.201 1.198c-1.326-1.722-2.87-3.266-4.591-4.592zm-22.4-9.014c0-.551.449-1 1-1h10c.551 0 1 .449 1 1s-.449 1-1 1h-10c-.551 0-1-.449-1-1zm9 3v2.186c-.984-.118-1.984-.186-3-.186s-2.016.068-3 .186v-2.186zm-23.981 10.584c.209-2.432 2.168-4.376 4.618-4.568l1.159 1.159c-1.723 1.324-3.268 2.868-4.595 4.588zm7.981 32.914c0 .465-.297.875-.74 1.021-.872.286-1.56.932-1.886 1.772-.042.107-.086.214-.131.318-.356.82-.325 1.757.087 2.572.21.415.13.915-.199 1.244l-.705.705c-.329.33-.829.409-1.244.199-.815-.412-1.752-.442-2.571-.087-.105.045-.212.089-.321.132-.839.326-1.484 1.014-1.771 1.887-.145.442-.556.739-1.021.739h-.996c-.465 0-.875-.297-1.021-.74-.286-.872-.932-1.56-1.772-1.886-.107-.042-.214-.086-.318-.131-.378-.165-.781-.247-1.186-.247-.473 0-.947.112-1.386.333-.417.21-.915.13-1.244-.199l-.705-.705c-.329-.329-.409-.829-.199-1.244.412-.815.443-1.752.087-2.571-.045-.105-.089-.212-.132-.321-.326-.839-1.014-1.484-1.887-1.771-.442-.144-.739-.555-.739-1.02v-.996c0-.465.297-.875.739-1.021.873-.286 1.561-.932 1.887-1.772.042-.107.086-.214.131-.318.356-.82.325-1.757-.087-2.572-.21-.415-.13-.916.199-1.245l.704-.704c.329-.33.828-.41 1.245-.199.815.412 1.754.443 2.571.087.106-.046.213-.09.32-.131.839-.327 1.485-1.015 1.772-1.887.145-.443.556-.74 1.021-.74h.996c.465 0 .875.297 1.021.74.287.872.932 1.56 1.771 1.886.107.042.214.086.319.131.819.356 1.757.324 2.572-.087.415-.211.915-.13 1.245.199l.704.704c.329.329.409.83.199 1.245-.412.815-.443 1.752-.087 2.571.045.105.089.212.132.321.326.839 1.014 1.484 1.887 1.771.442.145.739.556.739 1.021zm-5.949-17.498c.235-4.484 2.024-8.553 4.847-11.688l2.789 2.789 1.414-1.414-2.789-2.789c3.135-2.824 7.204-4.612 11.688-4.847v3.949h2v-3.949c4.484.235 8.553 2.024 11.688 4.847l-2.789 2.789 1.414 1.414 2.789-2.789c2.824 3.135 4.612 7.204 4.847 11.688h-3.949v2h3.949c-.235 4.484-2.024 8.553-4.847 11.688l-2.789-2.789-1.414 1.414 2.789 2.789c-3.135 2.824-7.204 4.612-11.688 4.847v-3.949h-2v3.96c-3.606-.188-7.036-1.391-10.004-3.513-.015-.818-.348-1.573-.903-2.125l2.008-2.008-1.414-1.414-2.301 2.301c-.052-.07-.115-.133-.147-.214-.051-.132-.104-.263-.161-.393-.118-.273-.104-.591.038-.873.601-1.188.372-2.62-.57-3.561l-.161-.16h29.615v-2h-4v-10h-6v10h-2v-16h-6v16h-2v-12h-6v12h-4v1.615l-.16-.16c-.783-.783-1.902-1.065-2.941-.796-.483-1.531-.769-3.09-.854-4.66h3.955v-2h-3.949zm9.949 6v-10h2v10zm8 0v-14h2v14zm8 0v-8h2v8zm-7 18c-4.544 0-8.877-1.314-12.629-3.791.624-.332 1.102-.868 1.374-1.505 3.374 2.16 7.232 3.296 11.255 3.296 11.58 0 21-9.42 21-21s-9.42-21-21-21-21 9.42-21 21c0 1.885.265 3.762.781 5.602-.159-.125-.295-.281-.362-.488-.337-1.025-1.175-1.768-2.187-2.016-.142-1.038-.232-2.077-.232-3.098 0-12.682 10.318-23 23-23s23 10.318 23 23-10.318 23-23 23z"/></g></svg>